<?xml version="1.0" encoding="utf-8"?>
<!-- Generator: Adobe Illustrator 26.2.1, SVG Export Plug-In . SVG Version: 6.00 Build 0)  -->
<svg version="1.1"
	 id="svg11350" sodipodi:docname="deploytoazure.svg" xmlns:inkscape="http://www.inkscape.org/namespaces/inkscape" xmlns:sodipodi="http://sodipodi.sourceforge.net/DTD/sodipodi-0.dtd" xmlns:svg="http://www.w3.org/2000/svg"
	 xmlns="http://www.w3.org/2000/svg" xmlns:xlink="http://www.w3.org/1999/xlink" x="0px" y="0px" viewBox="0 0 198.3 34"
	 style="enable-background:new 0 0 198.3 34;" xml:space="preserve">
<style type="text/css">
	.st0{fill:#006600;}
	.st1{display:none;fill:#FFFFFF;}
	.st2{display:none;fill-rule:evenodd;clip-rule:evenodd;fill:#FFFFFF;}
	.st3{fill:#FFFFFF;}
	.st4{display:none;}
	.st5{display:inline;fill:#FFFFFF;}
	.st6{display:none;fill:#0078D4;}
	.st7{fill-rule:evenodd;clip-rule:evenodd;fill:#FFFFFF;}
</style>
<sodipodi:namedview  bordercolor="#eeeeee" borderopacity="1" id="namedview11352" inkscape:current-layer="svg11350" inkscape:cx="83.5" inkscape:cy="17.035117" inkscape:pagecheckerboard="0" inkscape:pageopacity="0" inkscape:pageshadow="0" inkscape:window-height="1033" inkscape:window-maximized="0" inkscape:window-width="1664" inkscape:window-x="3867" inkscape:window-y="250" inkscape:zoom="8.9520958" pagecolor="#505050" showgrid="false">
	</sodipodi:namedview>
<path id="rect11344" class="st0" d="M4.7,0h188.8c2.6,0,4.7,1.8,4.7,4v26c0,2.2-2.1,4-4.7,4H4.7C2.1,34,0,32.2,0,30V4
	C0,1.8,2.1,0,4.7,0z"/>
<path id="path11346" class="st1" d="M50.3,23V12.5h3c3.9,0,5.8,1.7,5.8,5.1c0,1.6-0.5,2.9-1.6,3.9c-1.1,1-2.5,1.5-4.3,1.5H50.3z
	 M52,14v7.6h1.4c1.2,0,2.2-0.3,2.9-1c0.7-0.7,1-1.6,1-2.9c0-2.5-1.3-3.7-3.8-3.7H52z M67.2,19.7h-5.1c0,0.7,0.2,1.2,0.6,1.6
	c0.4,0.4,1,0.6,1.7,0.6c0.8,0,1.5-0.2,2.2-0.7v1.4C66,23,65,23.2,63.9,23.2c-1.1,0-2-0.3-2.6-1c-0.6-0.7-0.9-1.6-0.9-2.9
	c0-1.2,0.3-2.1,1-2.8c0.7-0.7,1.6-1.1,2.6-1.1s1.8,0.3,2.4,1c0.6,0.7,0.8,1.6,0.8,2.7V19.7z M65.6,18.5c0-0.6-0.1-1.1-0.4-1.4
	c-0.3-0.3-0.7-0.5-1.2-0.5c-0.5,0-0.9,0.2-1.2,0.5c-0.3,0.4-0.5,0.8-0.6,1.4H65.6z M70.6,21.9L70.6,21.9l0,4.6h-1.7V15.5h1.7v1.3h0
	c0.6-1,1.4-1.5,2.5-1.5c1,0,1.7,0.3,2.2,1c0.5,0.7,0.8,1.6,0.8,2.7c0,1.2-0.3,2.3-0.9,3c-0.6,0.8-1.4,1.1-2.5,1.1
	C71.8,23.2,71.1,22.7,70.6,21.9z M70.5,18.9v0.9c0,0.5,0.2,1,0.5,1.4c0.4,0.4,0.8,0.6,1.3,0.6c0.6,0,1.1-0.2,1.5-0.7
	c0.4-0.5,0.5-1.2,0.5-2.1c0-0.7-0.2-1.3-0.5-1.7c-0.3-0.4-0.8-0.6-1.4-0.6c-0.6,0-1.1,0.2-1.5,0.6C70.7,17.8,70.5,18.3,70.5,18.9z
	 M79.6,23h-1.7V11.9h1.7V23z M85.1,23.2c-1.2,0-2.1-0.3-2.8-1c-0.7-0.7-1-1.6-1-2.8c0-1.3,0.4-2.2,1.1-3c0.7-0.7,1.7-1.1,2.9-1.1
	c1.2,0,2.1,0.3,2.7,1c0.7,0.7,1,1.6,1,2.9c0,1.2-0.4,2.2-1.1,2.9C87.3,22.8,86.3,23.2,85.1,23.2z M85.2,16.7c-0.7,0-1.2,0.2-1.6,0.7
	c-0.4,0.5-0.6,1.1-0.6,1.9c0,0.8,0.2,1.4,0.6,1.9c0.4,0.4,0.9,0.7,1.6,0.7c0.7,0,1.2-0.2,1.5-0.7c0.4-0.4,0.5-1.1,0.5-1.9
	c0-0.8-0.2-1.5-0.5-1.9C86.4,16.9,85.9,16.7,85.2,16.7z M97.3,15.5l-3.4,8.7c-0.7,1.6-1.7,2.3-3,2.3c-0.4,0-0.7,0-0.9-0.1V25
	c0.3,0.1,0.5,0.1,0.7,0.1c0.6,0,1.1-0.3,1.4-0.9l0.5-1.2l-3-7.5h1.9l1.8,5.4c0,0.1,0.1,0.2,0.1,0.5h0c0-0.1,0.1-0.3,0.1-0.5l1.9-5.5
	H97.3z M106.1,22.9c-0.3,0.2-0.7,0.2-1.1,0.2c-1.3,0-2-0.7-2-2.2v-4.4h-1.3v-1h1.3v-1.8l1.2-0.4v2.2h1.9v1h-1.9v4.2
	c0,0.5,0.1,0.9,0.3,1.1c0.2,0.2,0.5,0.3,0.8,0.3c0.3,0,0.6-0.1,0.8-0.2V22.9z M110.8,23.2c-1.1,0-2-0.3-2.7-1c-0.7-0.7-1-1.6-1-2.8
	c0-1.3,0.3-2.2,1-3c0.7-0.7,1.6-1.1,2.8-1.1c1.1,0,2,0.3,2.6,1c0.6,0.7,0.9,1.6,0.9,2.9c0,1.2-0.3,2.2-1,2.9
	C112.9,22.8,112,23.2,110.8,23.2z M110.9,16.3c-0.8,0-1.4,0.3-1.8,0.8c-0.4,0.5-0.7,1.2-0.7,2.2c0,0.9,0.2,1.6,0.7,2.1
	c0.5,0.5,1.1,0.8,1.8,0.8c0.8,0,1.4-0.3,1.8-0.8c0.4-0.5,0.6-1.2,0.6-2.1c0-0.9-0.2-1.7-0.6-2.2C112.3,16.6,111.7,16.3,110.9,16.3z
	 M128.9,23h-1.4l-1.1-2.9H122l-1,2.9h-1.4l4-10.5h1.3L128.9,23z M126,18.9l-1.6-4.5c-0.1-0.1-0.1-0.4-0.2-0.7h0
	c0,0.3-0.1,0.5-0.2,0.7l-1.6,4.5H126z M135.5,15.8l-4.4,6.1h4.4v1h-6.2v-0.4l4.4-6.1h-4v-1h5.8V15.8z M143.1,23h-1.2v-1.2h0
	c-0.5,0.9-1.3,1.4-2.3,1.4c-1.8,0-2.7-1.1-2.7-3.2v-4.5h1.2v4.3c0,1.6,0.6,2.4,1.8,2.4c0.6,0,1.1-0.2,1.4-0.6c0.4-0.4,0.6-1,0.6-1.7
	v-4.3h1.2V23z M149.5,16.7c-0.2-0.2-0.5-0.2-0.9-0.2c-0.5,0-0.9,0.2-1.3,0.7c-0.3,0.5-0.5,1.1-0.5,2V23h-1.2v-7.5h1.2V17h0
	c0.2-0.5,0.4-0.9,0.8-1.2c0.4-0.3,0.7-0.4,1.2-0.4c0.3,0,0.6,0,0.7,0.1V16.7z M156.8,19.6h-5.3c0,0.8,0.2,1.5,0.7,1.9
	c0.4,0.5,1,0.7,1.8,0.7c0.8,0,1.6-0.3,2.3-0.8v1.1c-0.7,0.5-1.5,0.7-2.6,0.7c-1.1,0-1.9-0.3-2.5-1c-0.6-0.7-0.9-1.6-0.9-2.9
	c0-1.2,0.3-2.1,1-2.8c0.7-0.7,1.5-1.1,2.5-1.1c1,0,1.7,0.3,2.3,1c0.5,0.6,0.8,1.5,0.8,2.6V19.6z M155.6,18.5c0-0.7-0.2-1.2-0.5-1.6
	c-0.3-0.4-0.8-0.6-1.4-0.6c-0.6,0-1,0.2-1.4,0.6c-0.4,0.4-0.6,0.9-0.7,1.6H155.6z"/>
<path id="path37" class="st2" d="M26.2,6.2L26.2,6.2L26.2,6.2h7c0.6,0,1.2,0.4,1.4,1l6.1,18c0.3,1-0.4,2-1.4,2h-6.9l0,0h-0.1l0,0
	c-0.3,0-0.6-0.1-0.9-0.3l-4.6-3.4l-0.9,2.7c-0.2,0.6-0.8,1-1.4,1h-4.4c-1,0-1.7-1-1.4-2l6-18C25,6.6,25.5,6.2,26.2,6.2z M23.6,19.9
	l8.4,6.2c0.1,0.1,0.2,0.1,0.3,0.1l0,0c0.3,0,0.6-0.3,0.5-0.7l-3.4-10l-1.3,3.3L28,19.2h-0.3h-5L23.6,19.9z M39.3,26.2h-5.6
	c0.1-0.3,0.1-0.6,0-1l-6-18l0,0h5.6c0.2,0,0.4,0.1,0.5,0.3l6.1,18C39.9,25.9,39.6,26.2,39.3,26.2z"/>
<g>
	<g>
		<path class="st3" d="M50.5,22.8V12.3h3.3c1.9,0,3.3,0.4,4.2,1.3s1.4,2.1,1.4,3.8c0,1.6-0.5,2.9-1.5,3.9s-2.4,1.5-4.1,1.5H50.5z
			 M52.3,13.8v7.5h1.4c1.2,0,2.1-0.3,2.8-1s1-1.6,1-2.8c0-1.2-0.3-2.1-1-2.7s-1.6-0.9-2.8-0.9H52.3z"/>
		<path class="st3" d="M67.5,19.4h-5.2c0,0.7,0.2,1.3,0.6,1.7c0.4,0.4,0.9,0.6,1.6,0.6c0.3,0,0.6-0.1,1-0.2c0.4-0.1,0.7-0.3,1.1-0.6
			l0.8,1.1c-0.5,0.3-1,0.6-1.5,0.7s-1,0.2-1.6,0.2c-1.2,0-2.1-0.3-2.8-1s-1-1.7-1-2.9c0-1.2,0.3-2.2,1-3c0.7-0.8,1.6-1.1,2.6-1.1
			c1,0,1.8,0.3,2.4,1c0.6,0.6,0.9,1.6,0.9,2.8V19.4z M65.8,18.2c0-0.7-0.2-1.2-0.4-1.5s-0.7-0.5-1.2-0.5c-0.5,0-0.9,0.2-1.3,0.5
			s-0.6,0.8-0.6,1.5H65.8z"/>
		<path class="st3" d="M70.7,21.8L70.7,21.8l0,4.5H69V15.1h1.7v1.3h0c0.3-0.5,0.7-0.8,1.1-1.1c0.4-0.2,0.9-0.4,1.5-0.4
			c1,0,1.8,0.3,2.3,1s0.8,1.6,0.8,2.8c0,1.3-0.3,2.3-0.9,3.1C74.9,22.6,74,23,73,23c-0.5,0-0.9-0.1-1.3-0.3S71,22.2,70.7,21.8z
			 M70.7,18.7v0.8c0,0.6,0.2,1.1,0.5,1.5s0.8,0.6,1.4,0.6c0.7,0,1.2-0.3,1.5-0.8s0.5-1.2,0.5-2.1c0-0.8-0.2-1.4-0.5-1.8
			c-0.3-0.4-0.8-0.6-1.4-0.6c-0.6,0-1.1,0.2-1.5,0.7C70.9,17.4,70.7,18,70.7,18.7z"/>
		<path class="st3" d="M78,22.8V11.7h1.7v11.1H78z"/>
		<path class="st3" d="M85.3,23c-1.2,0-2.2-0.4-2.9-1.1c-0.7-0.7-1.1-1.7-1.1-2.9c0-1.3,0.4-2.3,1.1-3c0.7-0.7,1.7-1.1,3-1.1
			c1.2,0,2.1,0.3,2.8,1.1c0.7,0.7,1,1.7,1,2.9c0,1.2-0.4,2.2-1.1,3C87.5,22.6,86.5,23,85.3,23z M85.4,21.6c0.7,0,1.2-0.2,1.6-0.7
			c0.4-0.5,0.5-1.1,0.5-2c0-0.8-0.2-1.5-0.5-1.9c-0.4-0.4-0.9-0.7-1.6-0.7c-0.7,0-1.2,0.2-1.6,0.7c-0.4,0.5-0.6,1.1-0.6,2
			s0.2,1.5,0.6,1.9C84.1,21.4,84.7,21.6,85.4,21.6z"/>
		<path class="st3" d="M97.6,15.1L94,24.2c-0.3,0.7-0.6,1.3-1.1,1.6s-1,0.6-1.7,0.6c-0.2,0-0.4,0-0.6,0c-0.2,0-0.3-0.1-0.5-0.1
			l0.3-1.4c0.1,0,0.2,0.1,0.3,0.1c0.1,0,0.2,0,0.3,0c0.3,0,0.5-0.1,0.7-0.2c0.2-0.1,0.4-0.4,0.5-0.7l0.6-1.3l-3.1-7.7h1.9l1.8,5.3
			c0,0.1,0.1,0.2,0.1,0.3s0.1,0.3,0.1,0.5h0c0-0.1,0-0.2,0.1-0.3c0-0.1,0.1-0.3,0.1-0.4l1.9-5.4H97.6z"/>
		<path class="st3" d="M106.6,22.7c-0.2,0.1-0.5,0.2-0.7,0.2s-0.5,0.1-0.8,0.1c-0.7,0-1.3-0.2-1.7-0.6c-0.4-0.4-0.6-0.9-0.6-1.7
			v-4.2h-1.3v-1.4h1.3v-1.7l1.7-0.5v2.3h1.8v1.4h-1.8v4.1c0,0.4,0.1,0.7,0.2,0.8c0.1,0.2,0.4,0.2,0.6,0.2c0.1,0,0.3,0,0.4,0
			c0.1,0,0.2-0.1,0.3-0.1L106.6,22.7z"/>
		<path class="st3" d="M111.3,23c-1.2,0-2.2-0.4-2.9-1.1c-0.7-0.7-1.1-1.7-1.1-2.9c0-1.3,0.4-2.3,1.1-3c0.7-0.7,1.7-1.1,3-1.1
			c1.2,0,2.1,0.3,2.8,1.1c0.7,0.7,1,1.7,1,2.9c0,1.2-0.4,2.2-1.1,3C113.5,22.6,112.5,23,111.3,23z M111.4,21.6
			c0.7,0,1.2-0.2,1.6-0.7c0.4-0.5,0.5-1.1,0.5-2c0-0.8-0.2-1.5-0.5-1.9c-0.4-0.4-0.9-0.7-1.6-0.7c-0.7,0-1.2,0.2-1.6,0.7
			c-0.4,0.5-0.6,1.1-0.6,2s0.2,1.5,0.6,1.9C110.1,21.4,110.7,21.6,111.4,21.6z"/>
		<path class="st3" d="M119.7,22.8l3.9-10.5h2l3.9,10.5h-2l-0.9-2.5h-4.2l-0.9,2.5H119.7z M123,18.9h3.3l-1.4-4.1
			c0-0.1-0.1-0.2-0.1-0.3c0-0.1-0.1-0.2-0.1-0.4h0c0,0.1,0,0.3-0.1,0.4c0,0.1-0.1,0.2-0.1,0.3L123,18.9z"/>
		<path class="st3" d="M136.4,15.9l-4.1,5.6h4.1v1.4h-6.6v-0.7l4.2-5.7h-3.8v-1.4h6.2V15.9z"/>
		<path class="st3" d="M144.4,22.8h-1.7v-1.2h0c-0.3,0.5-0.6,0.8-1,1c-0.4,0.2-0.9,0.3-1.4,0.3c-0.9,0-1.6-0.3-2-0.8
			c-0.5-0.5-0.7-1.4-0.7-2.4v-4.6h1.7v4.4c0,0.7,0.1,1.2,0.4,1.6c0.3,0.3,0.7,0.5,1.2,0.5c0.5,0,0.9-0.2,1.3-0.6
			c0.3-0.4,0.5-0.9,0.5-1.5v-4.4h1.7V22.8z"/>
		<path class="st3" d="M150.7,16.6c-0.1,0-0.2,0-0.3-0.1c-0.1,0-0.2,0-0.3,0c-0.6,0-1.1,0.2-1.4,0.7c-0.3,0.5-0.5,1.1-0.5,1.8v3.8
			h-1.8v-7.7h1.8v1.5h0c0.2-0.5,0.4-0.9,0.8-1.2c0.4-0.3,0.8-0.4,1.2-0.4c0.1,0,0.3,0,0.4,0s0.2,0,0.3,0.1L150.7,16.6z"/>
		<path class="st3" d="M158.5,19.4h-5.2c0,0.7,0.2,1.3,0.6,1.7c0.4,0.4,0.9,0.6,1.6,0.6c0.3,0,0.6-0.1,1-0.2
			c0.4-0.1,0.7-0.3,1.1-0.6l0.8,1.1c-0.5,0.3-1,0.6-1.5,0.7c-0.5,0.2-1,0.2-1.6,0.2c-1.2,0-2.1-0.3-2.8-1s-1-1.7-1-2.9
			c0-1.2,0.3-2.2,1-3c0.7-0.8,1.6-1.1,2.6-1.1c1,0,1.8,0.3,2.4,1c0.6,0.6,0.9,1.6,0.9,2.8V19.4z M156.8,18.2c0-0.7-0.2-1.2-0.4-1.5
			c-0.3-0.3-0.7-0.5-1.2-0.5c-0.5,0-0.9,0.2-1.3,0.5c-0.3,0.4-0.6,0.8-0.6,1.5H156.8z"/>
		<path class="st3" d="M172.3,22.1c-0.5,0.3-1.1,0.5-1.7,0.7c-0.6,0.2-1.3,0.2-2,0.2c-1.6,0-2.9-0.5-3.8-1.4
			c-0.9-0.9-1.4-2.2-1.4-3.9c0-1.7,0.5-3,1.5-4c1-1,2.4-1.5,4-1.5c0.6,0,1.2,0.1,1.7,0.2s1.1,0.3,1.6,0.6l-0.6,1.4
			c-0.5-0.2-0.9-0.4-1.3-0.5c-0.4-0.1-0.9-0.1-1.4-0.1c-1.1,0-2,0.3-2.7,1c-0.7,0.7-1,1.7-1,2.9c0,1.3,0.3,2.3,0.9,2.9
			c0.6,0.6,1.5,1,2.6,1c0.3,0,0.7,0,1-0.1c0.3-0.1,0.6-0.2,0.8-0.3v-2.5h-2.2v-1.5h4V22.1z"/>
		<path class="st3" d="M177.6,23c-1.2,0-2.2-0.4-2.9-1.1c-0.7-0.7-1.1-1.7-1.1-2.9c0-1.3,0.4-2.3,1.1-3c0.7-0.7,1.7-1.1,3-1.1
			c1.2,0,2.1,0.3,2.8,1.1c0.7,0.7,1,1.7,1,2.9c0,1.2-0.4,2.2-1.1,3C179.8,22.6,178.9,23,177.6,23z M177.7,21.6
			c0.7,0,1.2-0.2,1.6-0.7c0.4-0.5,0.5-1.1,0.5-2c0-0.8-0.2-1.5-0.5-1.9c-0.4-0.4-0.9-0.7-1.6-0.7c-0.7,0-1.2,0.2-1.6,0.7
			c-0.4,0.5-0.6,1.1-0.6,2s0.2,1.5,0.6,1.9C176.5,21.4,177,21.6,177.7,21.6z"/>
		<path class="st3" d="M189.9,15.1l-3,7.7H185l-2.8-7.7h1.9l1.7,5.2c0.1,0.2,0.1,0.5,0.2,0.7c0,0.2,0.1,0.4,0.1,0.6h0
			c0-0.2,0.1-0.4,0.1-0.6s0.1-0.4,0.2-0.6l1.7-5.2H189.9z"/>
	</g>
</g>
<g>
	<g class="st4">
		<path class="st5" d="M47.7,29.4c-0.5,0.3-1.1,0.5-1.7,0.7c-0.6,0.2-1.3,0.3-2.1,0.3c-1.7,0-3-0.4-4-1.3c-1-0.9-1.5-2.2-1.5-4
			c0-1.6,0.5-2.9,1.5-4s2.4-1.6,4.2-1.6c0.7,0,1.3,0.1,1.8,0.2c0.6,0.1,1.1,0.3,1.7,0.6L46.9,22c-0.5-0.2-0.9-0.4-1.4-0.4
			c-0.4-0.1-0.9-0.1-1.4-0.1c-1,0-1.8,0.3-2.4,0.9s-0.9,1.5-0.9,2.7c0,1.2,0.3,2.1,0.9,2.6s1.3,0.8,2.3,0.8c0.3,0,0.5,0,0.8-0.1
			c0.2,0,0.4-0.1,0.6-0.2v-2.1h-2.1v-1.8h4.4V29.4z"/>
		<path class="st5" d="M53.3,30.4c-1.3,0-2.3-0.4-3-1.1s-1.1-1.7-1.1-2.9c0-1.3,0.4-2.3,1.1-3c0.7-0.7,1.8-1.1,3.1-1.1
			c1.3,0,2.2,0.4,3,1.1c0.7,0.7,1.1,1.7,1.1,2.9c0,1.3-0.4,2.3-1.1,3C55.6,30,54.6,30.4,53.3,30.4z M53.4,28.7c0.6,0,1-0.2,1.3-0.6
			s0.4-1,0.4-1.8c0-0.7-0.1-1.3-0.5-1.7c-0.3-0.4-0.8-0.6-1.4-0.6c-0.6,0-1,0.2-1.4,0.6s-0.5,1-0.5,1.7c0,0.8,0.2,1.3,0.5,1.7
			C52.3,28.5,52.8,28.7,53.4,28.7z"/>
		<path class="st5" d="M66.3,22.5l-2.9,7.7h-2.5l-2.8-7.7h2.4l1.4,4.8c0.1,0.3,0.1,0.5,0.2,0.7c0,0.2,0.1,0.4,0.1,0.6h0
			c0-0.2,0-0.4,0.1-0.6s0.1-0.4,0.2-0.7l1.4-4.9H66.3z"/>
		<path class="st5" d="M74.3,27h-5.1c0,0.6,0.2,1,0.6,1.3c0.3,0.3,0.8,0.4,1.4,0.4c0.2,0,0.5-0.1,0.9-0.2c0.4-0.1,0.8-0.3,1.1-0.6
			l1,1.3c-0.5,0.4-1.1,0.7-1.6,0.9c-0.5,0.2-1.1,0.3-1.8,0.3c-1.2,0-2.2-0.3-2.9-1s-1-1.7-1-2.9c0-1.2,0.4-2.2,1.1-3
			s1.6-1.1,2.7-1.1c1.1,0,1.9,0.3,2.5,1s0.9,1.6,0.9,2.8V27z M72.3,25.6c0-0.6-0.1-1-0.4-1.3c-0.2-0.3-0.6-0.4-1.1-0.4
			c-0.4,0-0.8,0.2-1,0.5c-0.3,0.3-0.5,0.7-0.5,1.3H72.3z"/>
		<path class="st5" d="M80.6,24.4c-0.1,0-0.2,0-0.3-0.1c-0.1,0-0.2,0-0.3,0c-0.6,0-1.1,0.2-1.4,0.6c-0.3,0.4-0.5,0.9-0.5,1.6v3.7
			h-2.2v-7.7h2.2V24h0c0.2-0.5,0.4-0.9,0.8-1.2c0.3-0.3,0.8-0.4,1.2-0.4c0.1,0,0.2,0,0.3,0c0.1,0,0.2,0,0.3,0.1L80.6,24.4z"/>
		<path class="st5" d="M89.3,30.2h-2.2v-4.3c0-0.6-0.1-1.1-0.3-1.4c-0.2-0.3-0.6-0.5-1-0.5c-0.4,0-0.8,0.2-1.1,0.5
			c-0.3,0.3-0.4,0.8-0.4,1.3v4.4H82v-7.7h2.2v1.2h0c0.3-0.5,0.6-0.8,1-1.1c0.4-0.2,0.9-0.4,1.4-0.4c0.8,0,1.5,0.3,1.9,0.8
			c0.4,0.5,0.6,1.3,0.6,2.4V30.2z"/>
		<path class="st5" d="M103.4,30.2h-2.2v-4.4c0-0.6-0.1-1-0.3-1.3c-0.2-0.3-0.5-0.4-1-0.4c-0.4,0-0.7,0.2-1,0.5s-0.4,0.8-0.4,1.3
			v4.3h-2.2v-4.4c0-0.6-0.1-1-0.3-1.3c-0.2-0.3-0.5-0.4-1-0.4c-0.4,0-0.8,0.2-1,0.5c-0.3,0.3-0.4,0.8-0.4,1.4v4.3h-2.2v-7.7h2.2v1.2
			h0c0.2-0.4,0.6-0.8,1-1c0.4-0.3,0.9-0.4,1.4-0.4c0.5,0,1,0.1,1.4,0.4s0.7,0.6,0.8,1.1c0.3-0.5,0.7-0.9,1.1-1.1s0.9-0.4,1.5-0.4
			c0.8,0,1.5,0.3,1.9,0.8c0.4,0.5,0.6,1.3,0.6,2.3V30.2z"/>
		<path class="st5" d="M112.2,27h-5.1c0,0.6,0.2,1,0.6,1.3c0.3,0.3,0.8,0.4,1.4,0.4c0.2,0,0.5-0.1,0.9-0.2c0.4-0.1,0.8-0.3,1.1-0.6
			l1,1.3c-0.5,0.4-1.1,0.7-1.6,0.9c-0.5,0.2-1.1,0.3-1.8,0.3c-1.2,0-2.2-0.3-2.9-1s-1-1.7-1-2.9c0-1.2,0.4-2.2,1.1-3
			c0.7-0.8,1.6-1.1,2.7-1.1c1.1,0,1.9,0.3,2.5,1c0.6,0.6,0.9,1.6,0.9,2.8V27z M110.2,25.6c0-0.6-0.1-1-0.4-1.3
			c-0.2-0.3-0.6-0.4-1.1-0.4c-0.4,0-0.8,0.2-1,0.5c-0.3,0.3-0.5,0.7-0.5,1.3H110.2z"/>
		<path class="st5" d="M121.1,30.2h-2.2v-4.3c0-0.6-0.1-1.1-0.3-1.4c-0.2-0.3-0.6-0.5-1-0.5c-0.4,0-0.8,0.2-1.1,0.5
			c-0.3,0.3-0.4,0.8-0.4,1.3v4.4h-2.2v-7.7h2.2v1.2h0c0.3-0.5,0.6-0.8,1-1.1c0.4-0.2,0.9-0.4,1.4-0.4c0.8,0,1.5,0.3,1.9,0.8
			c0.4,0.5,0.6,1.3,0.6,2.4V30.2z"/>
		<path class="st5" d="M127.8,30.1c-0.2,0.1-0.5,0.2-0.8,0.2c-0.3,0.1-0.6,0.1-0.9,0.1c-0.8,0-1.4-0.2-1.9-0.6
			c-0.4-0.4-0.6-1-0.6-1.8v-3.8h-1.3v-1.7h1.3v-1.7l2.2-0.6v2.4h1.8v1.7h-1.8v3.7c0,0.3,0.1,0.5,0.2,0.7s0.3,0.2,0.6,0.2
			c0.1,0,0.3,0,0.4,0c0.1,0,0.2-0.1,0.3-0.1L127.8,30.1z"/>
	</g>
</g>
<path id="rect11344_00000007390019286883600980000007539966425508633993_" class="st6" d="M4,0h159c2.2,0,4,1.8,4,4v26
	c0,2.2-1.8,4-4,4H4c-2.2,0-4-1.8-4-4V4C0,1.8,1.8,0,4,0z"/>
<path id="path11346_00000075879682465662552340000017063908341707069085_" class="st1" d="M50.3,23V12.5h3c3.9,0,5.8,1.7,5.8,5.1
	c0,1.6-0.5,2.9-1.6,3.9c-1.1,1-2.5,1.5-4.3,1.5H50.3z M52,14v7.6h1.4c1.2,0,2.2-0.3,2.9-1c0.7-0.7,1-1.6,1-2.9
	c0-2.5-1.3-3.7-3.8-3.7H52z M67.2,19.7h-5.1c0,0.7,0.2,1.2,0.6,1.6c0.4,0.4,1,0.6,1.7,0.6c0.8,0,1.5-0.2,2.2-0.7v1.4
	C66,23,65,23.2,63.9,23.2c-1.1,0-2-0.3-2.6-1c-0.6-0.7-0.9-1.6-0.9-2.9c0-1.2,0.3-2.1,1-2.8c0.7-0.7,1.6-1.1,2.6-1.1s1.8,0.3,2.4,1
	c0.6,0.7,0.8,1.6,0.8,2.7V19.7z M65.6,18.5c0-0.6-0.1-1.1-0.4-1.4c-0.3-0.3-0.7-0.5-1.2-0.5c-0.5,0-0.9,0.2-1.2,0.5
	c-0.3,0.4-0.5,0.8-0.6,1.4H65.6z M70.6,21.9L70.6,21.9l0,4.6h-1.7V15.5h1.7v1.3h0c0.6-1,1.4-1.5,2.5-1.5c1,0,1.7,0.3,2.2,1
	c0.5,0.7,0.8,1.6,0.8,2.7c0,1.2-0.3,2.3-0.9,3c-0.6,0.8-1.4,1.1-2.5,1.1C71.8,23.2,71.1,22.7,70.6,21.9z M70.5,18.9v0.9
	c0,0.5,0.2,1,0.5,1.4c0.4,0.4,0.8,0.6,1.3,0.6c0.6,0,1.1-0.2,1.5-0.7c0.4-0.5,0.5-1.2,0.5-2.1c0-0.7-0.2-1.3-0.5-1.7
	c-0.3-0.4-0.8-0.6-1.4-0.6c-0.6,0-1.1,0.2-1.5,0.6C70.7,17.8,70.5,18.3,70.5,18.9z M79.6,23h-1.7V11.9h1.7V23z M85.1,23.2
	c-1.2,0-2.1-0.3-2.8-1c-0.7-0.7-1-1.6-1-2.8c0-1.3,0.4-2.2,1.1-3c0.7-0.7,1.7-1.1,2.9-1.1c1.2,0,2.1,0.3,2.7,1c0.7,0.7,1,1.6,1,2.9
	c0,1.2-0.4,2.2-1.1,2.9C87.3,22.8,86.3,23.2,85.1,23.2z M85.2,16.7c-0.7,0-1.2,0.2-1.6,0.7c-0.4,0.5-0.6,1.1-0.6,1.9
	c0,0.8,0.2,1.4,0.6,1.9c0.4,0.4,0.9,0.7,1.6,0.7c0.7,0,1.2-0.2,1.5-0.7c0.4-0.4,0.5-1.1,0.5-1.9c0-0.8-0.2-1.5-0.5-1.9
	C86.4,16.9,85.9,16.7,85.2,16.7z M97.3,15.5l-3.4,8.7c-0.7,1.6-1.7,2.3-3,2.3c-0.4,0-0.7,0-0.9-0.1V25c0.3,0.1,0.5,0.1,0.7,0.1
	c0.6,0,1.1-0.3,1.4-0.9l0.5-1.2l-3-7.5h1.9l1.8,5.4c0,0.1,0.1,0.2,0.1,0.5h0c0-0.1,0.1-0.3,0.1-0.5l1.9-5.5H97.3z M106.1,22.9
	c-0.3,0.2-0.7,0.2-1.1,0.2c-1.3,0-2-0.7-2-2.2v-4.4h-1.3v-1h1.3v-1.8l1.2-0.4v2.2h1.9v1h-1.9v4.2c0,0.5,0.1,0.9,0.3,1.1
	c0.2,0.2,0.5,0.3,0.8,0.3c0.3,0,0.6-0.1,0.8-0.2V22.9z M110.8,23.2c-1.1,0-2-0.3-2.7-1c-0.7-0.7-1-1.6-1-2.8c0-1.3,0.3-2.2,1-3
	c0.7-0.7,1.6-1.1,2.8-1.1c1.1,0,2,0.3,2.6,1c0.6,0.7,0.9,1.6,0.9,2.9c0,1.2-0.3,2.2-1,2.9C112.9,22.8,112,23.2,110.8,23.2z
	 M110.9,16.3c-0.8,0-1.4,0.3-1.8,0.8c-0.4,0.5-0.7,1.2-0.7,2.2c0,0.9,0.2,1.6,0.7,2.1c0.5,0.5,1.1,0.8,1.8,0.8
	c0.8,0,1.4-0.3,1.8-0.8c0.4-0.5,0.6-1.2,0.6-2.1c0-0.9-0.2-1.7-0.6-2.2C112.3,16.6,111.7,16.3,110.9,16.3z M128.9,23h-1.4l-1.1-2.9
	H122l-1,2.9h-1.4l4-10.5h1.3L128.9,23z M126,18.9l-1.6-4.5c-0.1-0.1-0.1-0.4-0.2-0.7h0c0,0.3-0.1,0.5-0.2,0.7l-1.6,4.5H126z
	 M135.5,15.8l-4.4,6.1h4.4v1h-6.2v-0.4l4.4-6.1h-4v-1h5.8V15.8z M143.1,23h-1.2v-1.2h0c-0.5,0.9-1.3,1.4-2.3,1.4
	c-1.8,0-2.7-1.1-2.7-3.2v-4.5h1.2v4.3c0,1.6,0.6,2.4,1.8,2.4c0.6,0,1.1-0.2,1.4-0.6c0.4-0.4,0.6-1,0.6-1.7v-4.3h1.2V23z M149.5,16.7
	c-0.2-0.2-0.5-0.2-0.9-0.2c-0.5,0-0.9,0.2-1.3,0.7c-0.3,0.5-0.5,1.1-0.5,2V23h-1.2v-7.5h1.2V17h0c0.2-0.5,0.4-0.9,0.8-1.2
	c0.4-0.3,0.7-0.4,1.2-0.4c0.3,0,0.6,0,0.7,0.1V16.7z M156.8,19.6h-5.3c0,0.8,0.2,1.5,0.7,1.9c0.4,0.5,1,0.7,1.8,0.7
	c0.8,0,1.6-0.3,2.3-0.8v1.1c-0.7,0.5-1.5,0.7-2.6,0.7c-1.1,0-1.9-0.3-2.5-1c-0.6-0.7-0.9-1.6-0.9-2.9c0-1.2,0.3-2.1,1-2.8
	c0.7-0.7,1.5-1.1,2.5-1.1c1,0,1.7,0.3,2.3,1c0.5,0.6,0.8,1.5,0.8,2.6V19.6z M155.6,18.5c0-0.7-0.2-1.2-0.5-1.6
	c-0.3-0.4-0.8-0.6-1.4-0.6c-0.6,0-1,0.2-1.4,0.6c-0.4,0.4-0.6,0.9-0.7,1.6H155.6z"/>
<path id="path37_00000142174797562143252380000004130940439466841241_" class="st7" d="M24.2,6.2L24.2,6.2L24.2,6.2h7
	c0.6,0,1.2,0.4,1.4,1l6.1,18c0.3,1-0.4,2-1.4,2h-6.9l0,0h-0.1l0,0c-0.3,0-0.6-0.1-0.9-0.3l-4.6-3.4l-0.9,2.7c-0.2,0.6-0.8,1-1.4,1
	h-4.4c-1,0-1.7-1-1.4-2l6-18C23,6.6,23.5,6.2,24.2,6.2z M21.6,19.9l8.4,6.2c0.1,0.1,0.2,0.1,0.3,0.1l0,0c0.3,0,0.6-0.3,0.5-0.7
	l-3.4-10l-1.3,3.3L26,19.2h-0.3h-5L21.6,19.9z M37.3,26.2h-5.6c0.1-0.3,0.1-0.6,0-1l-6-18l0,0h5.6c0.2,0,0.4,0.1,0.5,0.3l6.1,18
	C37.9,25.9,37.6,26.2,37.3,26.2z"/>
</svg>
